<svg xmlns="http://www.w3.org/2000/svg" version="1.1" xmlns:xlink="http://www.w3.org/1999/xlink" xmlns:svgjs="http://svgjs.dev/svgjs" width="1500" height="1500" viewBox="0 0 1500 1500"><rect width="1500" height="1500" fill="#ffffff"></rect><g transform="matrix(0.6666666666666666,0,0,0.6666666666666666,249.39393939393938,438.5856950067477)"><svg viewBox="0 0 396 247" data-background-color="#ffffff" preserveAspectRatio="xMidYMid meet" height="935" width="1500" xmlns="http://www.w3.org/2000/svg" xmlns:xlink="http://www.w3.org/1999/xlink"><g id="tight-bounds" transform="matrix(1,0,0,1,0.2400000000000091,-0.09999999999999432)"><svg viewBox="0 0 395.52 247.2" height="247.2" width="395.52"><g><svg></svg></g><g><svg viewBox="0 0 395.52 247.2" height="247.2" width="395.52"><mask id="079d4f4f-b91a-47dc-8c85-d78bac29b50a"><rect width="640" height="400" fill="white"></rect><g transform="matrix(1,0,0,1,39.55199999999999,79.90883720930232)"><svg viewBox="0 0 316.416 87.38232558139535" height="87.38232558139535" width="316.416"><g><svg viewBox="0 0 316.416 87.38232558139535" height="87.38232558139535" width="316.416"><g><svg viewBox="0 0 316.416 87.38232558139535" height="87.38232558139535" width="316.416"><g><svg viewBox="0 0 316.416 87.38232558139535" height="87.38232558139535" width="316.416"><g id="SvgjsG1021"><svg viewBox="0 0 316.416 87.38232558139535" height="87.38232558139535" width="316.416" id="SvgjsSvg1020"><g><svg viewBox="0 0 316.416 87.38232558139535" height="87.38232558139535" width="316.416"><g transform="matrix(1,0,0,1,0,0)"><svg width="316.416" viewBox="-2.6 -44.5 207.38 58" height="87.38232558139535" data-palette-color="#a18c2d"><path d="M10.85 0L6.05 0 1.4-28.9 5.8-28.9 8.8-7.6 12.65-28.9 16.75-28.9 20.6-7.7 23.6-28.9 28-28.9 23.2 0 18.7 0 14.75-20.4 10.85 0ZM40.05 0.4L40.05 0.4Q36.85 0.4 35-0.9 33.15-2.2 32.37-4.6 31.6-7 31.6-10.25L31.6-10.25 31.6-18.65Q31.6-21.9 32.37-24.3 33.15-26.7 35-28 36.85-29.3 40.05-29.3L40.05-29.3Q43.25-29.3 45.07-28 46.9-26.7 47.67-24.3 48.45-21.9 48.45-18.65L48.45-18.65 48.45-10.25Q48.45-7 47.67-4.6 46.9-2.2 45.07-0.9 43.25 0.4 40.05 0.4ZM40.05-3.55L40.05-3.55Q41.6-3.55 42.22-4.45 42.85-5.35 42.97-6.83 43.1-8.3 43.1-9.9L43.1-9.9 43.1-18.95Q43.1-20.6 42.97-22.05 42.85-23.5 42.22-24.43 41.6-25.35 40.05-25.35L40.05-25.35Q38.5-25.35 37.85-24.43 37.2-23.5 37.07-22.05 36.95-20.6 36.95-18.95L36.95-18.95 36.95-9.9Q36.95-8.3 37.07-6.83 37.2-5.35 37.85-4.45 38.5-3.55 40.05-3.55ZM58.3 0L53.35 0 53.35-28.9 58.3-28.9 58.3-26.15Q59.75-27.8 61.5-28.6 63.25-29.4 65.09-29.4L65.09-29.4Q66.7-29.4 67.97-28.6 69.25-27.8 69.8-25.75L69.8-25.75Q71.34-27.65 73.17-28.53 75-29.4 77-29.4L77-29.4Q78.4-29.4 79.55-28.73 80.7-28.05 81.4-26.58 82.09-25.1 82.09-22.7L82.09-22.7 82.09 0 77.2 0 77.2-22.35Q77.2-24.45 76.52-25.18 75.84-25.9 74.7-25.9L74.7-25.9Q73.59-25.9 72.4-25.28 71.2-24.65 70.2-23.55L70.2-23.55Q70.2-23.35 70.2-23.15 70.2-22.95 70.2-22.7L70.2-22.7 70.2 0 65.3 0 65.3-22.35Q65.3-24.45 64.62-25.18 63.95-25.9 62.8-25.9L62.8-25.9Q61.7-25.9 60.52-25.28 59.35-24.65 58.3-23.55L58.3-23.55 58.3 0ZM95.34 0.4L95.34 0.4Q91.94 0.4 90.09-0.93 88.24-2.25 87.52-4.83 86.79-7.4 86.79-11.15L86.79-11.15 86.79-17.75Q86.79-21.6 87.54-24.15 88.29-26.7 90.17-28 92.04-29.3 95.34-29.3L95.34-29.3Q98.99-29.3 100.72-27.8 102.44-26.3 102.99-23.48 103.54-20.65 103.54-16.7L103.54-16.7 103.54-14.35 92.14-14.35 92.14-8.55Q92.14-6.8 92.47-5.7 92.79-4.6 93.52-4.08 94.24-3.55 95.39-3.55L95.39-3.55Q96.59-3.55 97.22-4.13 97.84-4.7 98.07-5.78 98.29-6.85 98.29-8.3L98.29-8.3 98.29-10.05 103.49-10.05 103.49-8.95Q103.49-4.6 101.64-2.1 99.79 0.4 95.34 0.4ZM92.14-18.8L92.14-17.25 98.29-17.25 98.29-19.85Q98.29-21.65 98.09-22.88 97.89-24.1 97.27-24.73 96.64-25.35 95.29-25.35L95.29-25.35Q93.99-25.35 93.32-24.75 92.64-24.15 92.39-22.73 92.14-21.3 92.14-18.8L92.14-18.8ZM113.74 0L108.39 0 108.39-28.9 113.74-28.9 113.74-26.05Q115.19-27.4 116.94-28.35 118.69-29.3 120.79-29.3L120.79-29.3Q122.54-29.3 123.47-28.4 124.39-27.5 124.77-26.15 125.14-24.8 125.14-23.4L125.14-23.4 125.14 0 119.79 0 119.79-21.85Q119.79-23.4 119.34-24.25 118.89-25.1 117.49-25.1L117.49-25.1Q116.59-25.1 115.62-24.58 114.64-24.05 113.74-23.3L113.74-23.3 113.74 0ZM135.69 9.5L130.34 9.5 130.34-28.9 135.69-28.9 135.69-26.6Q136.64-27.7 137.99-28.5 139.34-29.3 141.19-29.3L141.19-29.3Q143.44-29.3 144.76-28.13 146.09-26.95 146.74-25.18 147.39-23.4 147.59-21.58 147.79-19.75 147.79-18.45L147.79-18.45 147.79-11.45Q147.79-8.4 147.19-5.68 146.59-2.95 145.01-1.28 143.44 0.4 140.59 0.4L140.59 0.4Q139.04 0.4 137.84-0.38 136.64-1.15 135.69-2.15L135.69-2.15 135.69 9.5ZM139.54-3.8L139.54-3.8Q140.94-3.8 141.54-4.83 142.14-5.85 142.29-7.6 142.44-9.35 142.44-11.45L142.44-11.45 142.44-18.45Q142.44-20.25 142.24-21.78 142.04-23.3 141.39-24.2 140.74-25.1 139.34-25.1L139.34-25.1Q138.29-25.1 137.34-24.65 136.39-24.2 135.69-23.6L135.69-23.6 135.69-5.1Q136.44-4.55 137.39-4.17 138.34-3.8 139.54-3.8ZM158.49 0L153.14 0 153.14-40.5 158.49-40.5 158.49 0ZM168.23 0.4L168.23 0.4Q166.53 0.4 165.58-0.5 164.63-1.4 164.26-2.75 163.88-4.1 163.88-5.5L163.88-5.5 163.88-28.9 169.23-28.9 169.23-7.1Q169.23-5.55 169.68-4.67 170.13-3.8 171.53-3.8L171.53-3.8Q172.43-3.8 173.41-4.33 174.38-4.85 175.28-5.6L175.28-5.6 175.28-28.9 180.63-28.9 180.63 0 175.28 0 175.28-2.85Q173.88-1.5 172.11-0.55 170.33 0.4 168.23 0.4ZM192.78 0.4L192.78 0.4Q189.23 0.4 187.08-1.83 184.93-4.05 184.63-7.7L184.63-7.7 189.08-9.05Q189.48-6.3 190.43-4.93 191.38-3.55 193.23-3.55L193.23-3.55Q194.68-3.55 195.43-4.38 196.18-5.2 196.18-6.6L196.18-6.6Q196.18-7.85 195.63-8.85 195.08-9.85 193.83-10.9L193.83-10.9 188.88-15.15Q187.38-16.45 186.36-18.05 185.33-19.65 185.33-22.2L185.33-22.2Q185.33-24.5 186.26-26.08 187.18-27.65 188.86-28.48 190.53-29.3 192.78-29.3L192.78-29.3Q196.23-29.3 198.06-27.08 199.88-24.85 200.13-21.7L200.13-21.7 196.53-20.35Q196.33-21.85 195.93-22.98 195.53-24.1 194.83-24.73 194.13-25.35 192.98-25.35L192.98-25.35Q191.68-25.35 190.91-24.48 190.13-23.6 190.13-22.4L190.13-22.4Q190.13-21.65 190.46-20.93 190.78-20.2 191.58-19.5L191.58-19.5 196.68-14.8Q197.73-13.85 198.66-12.75 199.58-11.65 200.18-10.25 200.78-8.85 200.78-7L200.78-7Q200.78-4.55 199.78-2.9 198.78-1.25 196.98-0.43 195.18 0.4 192.78 0.4Z" opacity="1" transform="matrix(1,0,0,1,0,0)" fill="black" class="wordmark-text-0" id="SvgjsPath1019" stroke-width="7" stroke="black" stroke-linejoin="round"></path></svg></g></svg></g></svg></g></svg></g></svg></g></svg></g></svg></g></mask><g transform="matrix(1,0,0,1,39.55199999999999,79.90883720930232)"><svg viewBox="0 0 316.416 87.38232558139535" height="87.38232558139535" width="316.416"><g><svg viewBox="0 0 316.416 87.38232558139535" height="87.38232558139535" width="316.416"><g><svg viewBox="0 0 316.416 87.38232558139535" height="87.38232558139535" width="316.416"><g><svg viewBox="0 0 316.416 87.38232558139535" height="87.38232558139535" width="316.416"><g id="textblocktransform"><svg viewBox="0 0 316.416 87.38232558139535" height="87.38232558139535" width="316.416" id="textblock"><g><svg viewBox="0 0 316.416 87.38232558139535" height="87.38232558139535" width="316.416"><g transform="matrix(1,0,0,1,0,0)"><svg width="316.416" viewBox="-2.6 -44.5 207.38 58" height="87.38232558139535" data-palette-color="#a18c2d"><path d="M10.85 0L6.05 0 1.4-28.9 5.8-28.9 8.8-7.6 12.65-28.9 16.75-28.9 20.6-7.7 23.6-28.9 28-28.9 23.2 0 18.7 0 14.75-20.4 10.85 0ZM40.05 0.4L40.05 0.4Q36.85 0.4 35-0.9 33.15-2.2 32.37-4.6 31.6-7 31.6-10.25L31.6-10.25 31.6-18.65Q31.6-21.9 32.37-24.3 33.15-26.7 35-28 36.85-29.3 40.05-29.3L40.05-29.3Q43.25-29.3 45.07-28 46.9-26.7 47.67-24.3 48.45-21.9 48.45-18.65L48.45-18.65 48.45-10.25Q48.45-7 47.67-4.6 46.9-2.2 45.07-0.9 43.25 0.4 40.05 0.4ZM40.05-3.55L40.05-3.55Q41.6-3.55 42.22-4.45 42.85-5.35 42.97-6.83 43.1-8.3 43.1-9.9L43.1-9.9 43.1-18.95Q43.1-20.6 42.97-22.05 42.85-23.5 42.22-24.43 41.6-25.35 40.05-25.35L40.05-25.35Q38.5-25.35 37.85-24.43 37.2-23.5 37.07-22.05 36.95-20.6 36.95-18.95L36.95-18.95 36.95-9.9Q36.95-8.3 37.07-6.83 37.2-5.35 37.85-4.45 38.5-3.55 40.05-3.55ZM58.3 0L53.35 0 53.35-28.9 58.3-28.9 58.3-26.15Q59.75-27.8 61.5-28.6 63.25-29.4 65.09-29.4L65.09-29.4Q66.7-29.4 67.97-28.6 69.25-27.8 69.8-25.75L69.8-25.75Q71.34-27.65 73.17-28.53 75-29.4 77-29.4L77-29.4Q78.4-29.4 79.55-28.73 80.7-28.05 81.4-26.58 82.09-25.1 82.09-22.7L82.09-22.7 82.09 0 77.2 0 77.2-22.35Q77.2-24.45 76.52-25.18 75.84-25.9 74.7-25.9L74.7-25.9Q73.59-25.9 72.4-25.28 71.2-24.65 70.2-23.55L70.2-23.55Q70.2-23.35 70.2-23.15 70.2-22.95 70.2-22.7L70.2-22.7 70.2 0 65.3 0 65.3-22.35Q65.3-24.45 64.62-25.18 63.95-25.9 62.8-25.9L62.8-25.9Q61.7-25.9 60.52-25.28 59.35-24.65 58.3-23.55L58.3-23.55 58.3 0ZM95.34 0.4L95.34 0.4Q91.94 0.4 90.09-0.93 88.24-2.25 87.52-4.83 86.79-7.4 86.79-11.15L86.79-11.15 86.79-17.75Q86.79-21.6 87.54-24.15 88.29-26.7 90.17-28 92.04-29.3 95.34-29.3L95.34-29.3Q98.99-29.3 100.72-27.8 102.44-26.3 102.99-23.48 103.54-20.65 103.54-16.7L103.54-16.7 103.54-14.35 92.14-14.35 92.14-8.55Q92.14-6.8 92.47-5.7 92.79-4.6 93.52-4.08 94.24-3.55 95.39-3.55L95.39-3.55Q96.59-3.55 97.22-4.13 97.84-4.7 98.07-5.78 98.29-6.85 98.29-8.3L98.29-8.3 98.29-10.05 103.49-10.05 103.49-8.95Q103.49-4.6 101.64-2.1 99.79 0.4 95.34 0.4ZM92.14-18.8L92.14-17.25 98.29-17.25 98.29-19.85Q98.29-21.65 98.09-22.88 97.89-24.1 97.27-24.73 96.64-25.35 95.29-25.35L95.29-25.35Q93.99-25.35 93.32-24.75 92.64-24.15 92.39-22.73 92.14-21.3 92.14-18.8L92.14-18.8ZM113.74 0L108.39 0 108.39-28.9 113.74-28.9 113.74-26.05Q115.19-27.4 116.94-28.35 118.69-29.3 120.79-29.3L120.79-29.3Q122.54-29.3 123.47-28.4 124.39-27.5 124.77-26.15 125.14-24.8 125.14-23.4L125.14-23.4 125.14 0 119.79 0 119.79-21.85Q119.79-23.4 119.34-24.25 118.89-25.1 117.49-25.1L117.49-25.1Q116.59-25.1 115.62-24.58 114.64-24.05 113.74-23.3L113.74-23.3 113.74 0ZM135.69 9.5L130.34 9.5 130.34-28.9 135.69-28.9 135.69-26.6Q136.64-27.7 137.99-28.5 139.34-29.3 141.19-29.3L141.19-29.3Q143.44-29.3 144.76-28.13 146.09-26.95 146.74-25.18 147.39-23.4 147.59-21.58 147.79-19.75 147.79-18.45L147.79-18.45 147.79-11.45Q147.79-8.4 147.19-5.68 146.59-2.95 145.01-1.28 143.44 0.4 140.59 0.4L140.59 0.4Q139.04 0.4 137.84-0.38 136.64-1.15 135.69-2.15L135.69-2.15 135.69 9.5ZM139.54-3.8L139.54-3.8Q140.94-3.8 141.54-4.83 142.14-5.85 142.29-7.6 142.44-9.35 142.44-11.45L142.44-11.45 142.44-18.45Q142.44-20.25 142.24-21.78 142.04-23.3 141.39-24.2 140.74-25.1 139.34-25.1L139.34-25.1Q138.29-25.1 137.34-24.65 136.39-24.2 135.69-23.6L135.69-23.6 135.69-5.1Q136.44-4.55 137.39-4.17 138.34-3.8 139.54-3.8ZM158.49 0L153.14 0 153.14-40.5 158.49-40.5 158.49 0ZM168.23 0.4L168.23 0.4Q166.53 0.4 165.58-0.5 164.63-1.4 164.26-2.75 163.88-4.1 163.88-5.5L163.88-5.5 163.88-28.9 169.23-28.9 169.23-7.1Q169.23-5.55 169.68-4.67 170.13-3.8 171.53-3.8L171.53-3.8Q172.43-3.8 173.41-4.33 174.38-4.85 175.28-5.6L175.28-5.6 175.28-28.9 180.63-28.9 180.63 0 175.28 0 175.28-2.85Q173.88-1.5 172.11-0.55 170.33 0.4 168.23 0.4ZM192.78 0.4L192.78 0.4Q189.23 0.4 187.08-1.83 184.93-4.05 184.63-7.7L184.63-7.7 189.08-9.05Q189.48-6.3 190.43-4.93 191.38-3.55 193.23-3.55L193.23-3.55Q194.68-3.55 195.43-4.38 196.18-5.2 196.18-6.6L196.18-6.6Q196.18-7.85 195.63-8.85 195.08-9.85 193.83-10.9L193.83-10.9 188.88-15.15Q187.38-16.45 186.36-18.05 185.33-19.65 185.33-22.2L185.33-22.2Q185.33-24.5 186.26-26.08 187.18-27.65 188.86-28.48 190.53-29.3 192.78-29.3L192.78-29.3Q196.23-29.3 198.06-27.08 199.88-24.85 200.13-21.7L200.13-21.7 196.53-20.35Q196.33-21.85 195.93-22.98 195.53-24.1 194.83-24.73 194.13-25.35 192.98-25.35L192.98-25.35Q191.68-25.35 190.91-24.48 190.13-23.6 190.13-22.4L190.13-22.4Q190.13-21.65 190.46-20.93 190.78-20.2 191.58-19.5L191.58-19.5 196.68-14.8Q197.73-13.85 198.66-12.75 199.58-11.65 200.18-10.25 200.78-8.85 200.78-7L200.78-7Q200.78-4.55 199.78-2.9 198.78-1.25 196.98-0.43 195.18 0.4 192.78 0.4Z" opacity="1" transform="matrix(1,0,0,1,0,0)" fill="#000000" class="wordmark-text-0" data-fill-palette-color="primary" id="text-0"></path></svg></g></svg></g></svg></g></svg></g></svg></g></svg></g></svg></g><g mask="url(#079d4f4f-b91a-47dc-8c85-d78bac29b50a)"><g transform="matrix(2.910658220202845, 0, 0, 2.910658220202845, 95.49643247793685, 1)"><svg xmlns:x="http://ns.adobe.com/Extensibility/1.0/" xmlns:i="http://ns.adobe.com/AdobeIllustrator/10.0/" xmlns:graph="http://ns.adobe.com/Graphs/1.0/" xmlns="http://www.w3.org/2000/svg" xmlns:xlink="http://www.w3.org/1999/xlink" xmlns:a="http://ns.adobe.com/AdobeSVGViewerExtensions/3.0/" version="1.0" x="0" y="0" viewBox="15.409413039511426 5.36588655017288 70.26834467355384 84.24211344982713" enable-background="new 0 0 100 100" xml:space="preserve" height="84.24211344982713" width="70.26834467355384" class="icon-none" data-fill-palette-color="accent" id="none"><g fill="#000000" data-fill-palette-color="accent"><path d="M76.873 51.439c0.992-4.451 0.521-8.288-1.047-8.571-1.541-0.278-3.568 2.969-4.58 7.296-0.297-3.933-0.246-6.94-0.047-9.21l-0.107-0.032c-4.963-1.708-9.375-5.72-12.201-10.562-2.295 4.116-7.693 9.138-14.768 13.31-0.3 0.175-0.597 0.347-0.896 0.516 3.898 3.703 2.372 6.073-2.315 1.252-1.238 0.635-2.463 1.207-3.664 1.718 0.775 0.067 1.627 0.217 2.646 0.575 3.335 1.172 4.137 2.772 5.112 5.448-0.611-1.104-2.034-2.275-3.463-2.998 0.146 0.309 0.225 0.651 0.225 1.016 0 1.329-1.077 2.409-2.408 2.409s-2.409-1.08-2.409-2.409c0-0.816 0.406-1.539 1.03-1.977-1.347-0.139-2.45-0.01-4.14 0.146 0.604 1.307 1.293 3.279 2.906 4.333-2.077-0.755-3.58-2.915-4.517-4.722-1.245 0.367-2.438 0.652-3.558 0.848-2.377 0.411-4.376 0.436-5.902 0.053 0.077 0.508 0.172 1.029 0.291 1.562 0.992 4.448 3.067 7.825 4.636 7.542 0.771-0.139 1.277-1.133 1.475-2.638 0.325 2.54 0.813 5.8 1.228 9.438 0.783 6.85 16.542 18.85 16.542 18.85h6.05c0 0 15.76-12 16.541-18.85 0.418-3.639 0.906-6.898 1.229-9.438 0.199 1.505 0.703 2.499 1.475 2.638C73.805 59.265 75.881 55.888 76.873 51.439L76.873 51.439zM39.68 50.623c0 0.411 0.333 0.746 0.743 0.746 0.413 0 0.743-0.335 0.743-0.746 0-0.41-0.33-0.742-0.743-0.742C40.013 49.881 39.68 50.213 39.68 50.623L39.68 50.623zM37.082 9.779C50.484 3 62.221 4.163 64.176 12.359c2.6-2.033 5.246-2.537 7.797-1.229C82.258 16.4 90.189 50.526 82.768 84.799c-0.359 1.656-0.713 3.174-1.062 4.562-5.646 0.084-11.648 0.15-17.92 0.195-0.98-3.728-1.229-8.167-1.195-11.964-3.5 3.453-7.244 6.476-9.225 7.983h-6.792c0 0-4.284-3.259-8.367-7.163-0.43-0.408-0.863-0.83-1.296-1.265 0.055 3.909-0.174 8.577-1.205 12.461-6.021-0.02-11.85-0.061-17.421-0.117C11.11 60.714 17.357 19.759 37.082 9.779L37.082 9.779zM53.727 75.447c0.166-0.05 0.26-0.224 0.207-0.389-0.051-0.163-0.229-0.257-0.395-0.207-0.164 0.05-0.256 0.225-0.207 0.388C53.385 75.405 53.561 75.499 53.727 75.447L53.727 75.447zM52.992 75.784c0.184-0.07 0.277-0.273 0.207-0.451-0.07-0.179-0.275-0.269-0.461-0.197l-0.244 0.094c-0.184 0.07-0.277 0.273-0.207 0.453 0.068 0.177 0.275 0.265 0.461 0.195L52.992 75.784 52.992 75.784zM49.588 73.349h0.245c1.836 0 3.573-1.067 2.151-1.067h-2.272-2.274C46.016 72.281 47.752 73.349 49.588 73.349L49.588 73.349zM55.91 69.973c1.713 0.525 2.936-0.129 2.9-0.088-0.436 0.374-2.455 1.889-2.455 1.889l-0.012 0.516c0 2.482-2.904 4.499-6.544 4.513-3.637-0.014-6.58-2.03-6.58-4.513l-0.013-0.516c0 0-2.021-1.515-2.455-1.889-0.036-0.041 1.187 0.613 2.899 0.088 3.808-1.174 5.585-0.393 6.148 0.521C50.365 69.58 52.104 68.799 55.91 69.973L55.91 69.973zM59.629 47.729c3.838-1.349 5.361 0.199 8.828-1.509 0 0-1.879 6.097-5.686 7.478 1.613-1.054 2.305-3.026 2.908-4.333-1.688-0.156-2.793-0.285-4.139-0.146 0.621 0.438 1.029 1.16 1.029 1.977 0 1.329-1.078 2.409-2.408 2.409s-2.408-1.08-2.408-2.409c0-0.364 0.082-0.707 0.225-1.016-1.428 0.723-2.852 1.895-3.463 2.998C55.488 50.502 56.291 48.901 59.629 47.729L59.629 47.729zM61.787 50.623c0-0.41-0.332-0.742-0.74-0.742-0.412 0-0.746 0.332-0.746 0.742 0 0.411 0.334 0.746 0.746 0.746C61.455 51.369 61.787 51.034 61.787 50.623L61.787 50.623zM61.463 40.579c4.555-2.431 7.176 1.493 7.176 1.493s-4.604-3.165-8.057 1.12C52.734 52.932 50.787 46.275 61.463 40.579L61.463 40.579z" fill="#000000" data-fill-palette-color="accent"></path></g></svg></g></g></svg></g><defs></defs></svg><rect width="395.52" height="247.2" fill="none" stroke="none" visibility="hidden"></rect></g></svg></g></svg>